<svg enable-background="new 0 0 520 520" height="512" viewBox="0 0 520 520" width="512" xmlns="http://www.w3.org/2000/svg"><g id="_x31_58_x2C__Contact__x2C__Home_x2C__Homepage_x2C__House"><g><g><path d="m257.5 147.05-120 85.71v.01 19.73 20 115 25h240v-25-115-20-19.74z" fill="#c86d36"/><path d="m137.5 387.5v25h240v-25c-9.187 0-231.251 0-240 0z" fill="#a85120"/><path d="m67.5 302.5c11.05 0 20 8.95 20 20s-8.95 20-20 20c-11.04 0-20-8.95-20-20s8.96-20 20-20z" fill="#5cbeff"/><path d="m415 82.5c15.19 0 27.5 12.31 27.5 27.5s-12.31 27.5-27.5 27.5c-15.18 0-27.5-12.31-27.5-27.5s12.32-27.5 27.5-27.5z" fill="#5cbeff"/><path d="m222.5 307.5v80 25h70v-25-80z" fill="#3f4751"/><path d="m257.5 182.5c13.81 0 25 11.19 25 25s-11.19 25-25 25c-13.8 0-25-11.19-25-25s11.2-25 25-25z" fill="#bce4ff"/><path d="m137.5 252.5h240v20h-240z" fill="#a85120"/><g fill="#ffd400"><path d="m465 182.5c4.15 0 7.5 3.36 7.5 7.5s-3.35 7.5-7.5 7.5c-4.14 0-7.5-3.36-7.5-7.5s3.36-7.5 7.5-7.5z"/><path d="m460 377.5c4.15 0 7.5 3.36 7.5 7.5s-3.35 7.5-7.5 7.5c-4.14 0-7.5-3.36-7.5-7.5s3.36-7.5 7.5-7.5z"/><path d="m415 302.5c4.15 0 7.5 3.36 7.5 7.5s-3.35 7.5-7.5 7.5c-4.14 0-7.5-3.36-7.5-7.5s3.36-7.5 7.5-7.5z"/><path d="m335 52.5c4.15 0 7.5 3.36 7.5 7.5s-3.35 7.5-7.5 7.5c-4.14 0-7.5-3.36-7.5-7.5s3.36-7.5 7.5-7.5z"/></g><path d="m275 357.5c4.15 0 7.5 3.36 7.5 7.5s-3.35 7.5-7.5 7.5c-4.14 0-7.5-3.36-7.5-7.5s3.36-7.5 7.5-7.5z" fill="#22262b"/><path d="m142.5 62.5c4.15 0 7.5 3.36 7.5 7.5s-3.35 7.5-7.5 7.5c-4.14 0-7.5-3.36-7.5-7.5s3.36-7.5 7.5-7.5z" fill="#ffd400"/><path d="m105 377.5c4.15 0 7.5 3.36 7.5 7.5s-3.35 7.5-7.5 7.5c-4.14 0-7.5-3.36-7.5-7.5s3.36-7.5 7.5-7.5z" fill="#ffd400"/><path d="m50 162.5c4.15 0 7.5 3.36 7.5 7.5s-3.35 7.5-7.5 7.5c-4.14 0-7.5-3.36-7.5-7.5s3.36-7.5 7.5-7.5z" fill="#ffd400"/><path d="m417.5 442.5h-330c-2.761 0-5-2.238-5-5s2.239-5 5-5h330c2.762 0 5 2.238 5 5s-2.238 5-5 5z" fill="#ff5722"/><path d="m472.5 467.5h-180c-2.762 0-5-2.238-5-5s2.238-5 5-5h180c2.762 0 5 2.238 5 5s-2.238 5-5 5z" fill="#ff5722"/><path d="m412.221 235.77c-7.67 7.67-19.771 8.67-28.59 2.37-20.31-14.506-116.767-83.402-126.131-90.09-.195.139 1.625-1.161-126.12 90.09-8.83 6.3-20.92 5.3-28.59-2.37-9.7-9.7-8.37-25.78 2.79-33.75l151.92-108.52 151.93 108.52c11.178 7.987 12.466 24.074 2.791 33.75z" fill="#cd2738"/></g><g><path d="m257.5 147.05-120 85.71v.01 19.73 20 115 25h240v-25-115-20-19.74z" fill="#c86d36"/><path d="m137.5 387.5v25h240v-25c-9.187 0-231.251 0-240 0z" fill="#a85120"/><path d="m67.5 302.5c11.05 0 20 8.95 20 20s-8.95 20-20 20c-11.04 0-20-8.95-20-20s8.96-20 20-20z" fill="#5cbeff"/><path d="m415 82.5c15.19 0 27.5 12.31 27.5 27.5s-12.31 27.5-27.5 27.5c-15.18 0-27.5-12.31-27.5-27.5s12.32-27.5 27.5-27.5z" fill="#5cbeff"/><path d="m222.5 307.5v80 25h70v-25-80z" fill="#3f4751"/><path d="m257.5 182.5c13.81 0 25 11.19 25 25s-11.19 25-25 25c-13.8 0-25-11.19-25-25s11.2-25 25-25z" fill="#bce4ff"/><path d="m137.5 252.5h240v20h-240z" fill="#a85120"/><g fill="#ffd400"><path d="m465 182.5c4.15 0 7.5 3.36 7.5 7.5s-3.35 7.5-7.5 7.5c-4.14 0-7.5-3.36-7.5-7.5s3.36-7.5 7.5-7.5z"/><path d="m460 377.5c4.15 0 7.5 3.36 7.5 7.5s-3.35 7.5-7.5 7.5c-4.14 0-7.5-3.36-7.5-7.5s3.36-7.5 7.5-7.5z"/><path d="m415 302.5c4.15 0 7.5 3.36 7.5 7.5s-3.35 7.5-7.5 7.5c-4.14 0-7.5-3.36-7.5-7.5s3.36-7.5 7.5-7.5z"/><path d="m335 52.5c4.15 0 7.5 3.36 7.5 7.5s-3.35 7.5-7.5 7.5c-4.14 0-7.5-3.36-7.5-7.5s3.36-7.5 7.5-7.5z"/></g><path d="m275 357.5c4.15 0 7.5 3.36 7.5 7.5s-3.35 7.5-7.5 7.5c-4.14 0-7.5-3.36-7.5-7.5s3.36-7.5 7.5-7.5z" fill="#22262b"/><path d="m142.5 62.5c4.15 0 7.5 3.36 7.5 7.5s-3.35 7.5-7.5 7.5c-4.14 0-7.5-3.36-7.5-7.5s3.36-7.5 7.5-7.5z" fill="#ffd400"/><path d="m105 377.5c4.15 0 7.5 3.36 7.5 7.5s-3.35 7.5-7.5 7.5c-4.14 0-7.5-3.36-7.5-7.5s3.36-7.5 7.5-7.5z" fill="#ffd400"/><path d="m50 162.5c4.15 0 7.5 3.36 7.5 7.5s-3.35 7.5-7.5 7.5c-4.14 0-7.5-3.36-7.5-7.5s3.36-7.5 7.5-7.5z" fill="#ffd400"/><path d="m417.5 442.5h-330c-2.761 0-5-2.238-5-5s2.239-5 5-5h330c2.762 0 5 2.238 5 5s-2.238 5-5 5z" fill="#ff5722"/><path d="m472.5 467.5h-180c-2.762 0-5-2.238-5-5s2.238-5 5-5h180c2.762 0 5 2.238 5 5s-2.238 5-5 5z" fill="#ff5722"/><path d="m412.221 235.77c-7.67 7.67-19.771 8.67-28.59 2.37-20.31-14.506-116.767-83.402-126.131-90.09-.195.139 1.625-1.161-126.12 90.09-8.83 6.3-20.92 5.3-28.59-2.37-9.7-9.7-8.37-25.78 2.79-33.75l151.92-108.52 151.93 108.52c11.178 7.987 12.466 24.074 2.791 33.75z" fill="#cd2738"/></g></g></g></svg>