<svg id="Layer_1" enable-background="new 0 0 512 512" viewBox="0 0 512 512" xmlns="http://www.w3.org/2000/svg"><g clip-rule="evenodd" fill-rule="evenodd"><path d="m371.744 369.176-25.397-31.963c-1.521-1.914-2.225-4.35-1.955-6.78.272-2.447 1.507-4.648 3.428-6.183 1.633-1.305 3.649-2.013 5.738-2.013.358 0 .715.021 1.07.062 2.434.284 4.644 1.507 6.169 3.426l17.368 21.858c.535.674 1.32 1.083 2.18 1.132.848.048 1.691-.278 2.292-.878l49.298-49.298c3.611-3.611 9.477-3.611 13.088 0 3.609 3.609 3.609 9.475 0 13.083l-58.999 58.999c-1.941 1.941-4.574 2.897-7.301 2.679-2.753-.22-5.239-1.656-6.83-3.916l-.036-.051-.029-.043c-.025-.036-.054-.074-.084-.114zm-55.214-94.987c-.964.528-1.561 1.537-1.561 2.636v75.98c0 23.356 9.509 41.907 28.476 55.538l52.293 37.58c.512.368 1.121.56 1.751.56.629 0 1.24-.192 1.751-.56l52.302-37.58c18.972-13.631 28.476-32.178 28.476-55.538v-75.98c0-1.117-.625-2.103-1.598-2.636-60.796-33.285-101.093-33.291-161.89 0zm-210.362-113.123h224.821v44.269h-224.821zm23.701-59.411v-37.473c0-13.613 11.076-24.688 24.688-24.688h128.042c13.62 0 24.688 11.068 24.688 24.688v37.472h-24.788v-34.369c0-1.661-1.336-3.003-2.998-3.003h-121.841c-1.664 0-3.003 1.339-3.003 3.003v34.369h-24.788zm49.249 163.078v31.2c0 7.065 5.745 12.821 12.812 12.821h53.297c7.069 0 12.812-5.754 12.812-12.821v-31.2h30.933v88.072c0 16.625 3.743 32.669 12.094 47.117l4.336 7.502h-264.664c-15.85 0-28.739-12.888-28.739-28.739v-135.261l8.465 8.137c8.798 8.457 20.394 13.172 32.606 13.172zm320.897-1.298-2.489-1.445c-75.695-43.949-124.377-43.956-200.069 0l-2.489 1.445v89.37c0 29.584 12.78 54.514 36.804 71.778l65.718 47.227 65.689-47.228c24.02-17.269 36.836-42.188 36.836-71.778z" fill="#92c3fe"/><path d="m435.47 302.073c1.66-1.66 4.357-1.66 6.017 0s1.66 4.362 0 6.013l-58.999 58.999c-1.222 1.221-2.631 1.287-3.367 1.231-.74-.061-2.141-.391-3.141-1.811-.094-.141-.193-.269-.293-.401l-25.427-32.001c-.712-.887-1.023-1.99-.901-3.117.127-1.122.689-2.122 1.58-2.83.75-.604 1.669-.919 2.617-.919.16 0 .321.01.49.028 1.122.132 2.132.689 2.834 1.57l17.368 21.858c1.42 1.792 3.527 2.881 5.81 3.013 2.268.127 4.499-.721 6.111-2.334zm-66.073 16.802c-6.937-8.734-19.688-10.182-28.417-3.24-4.23 3.358-6.904 8.167-7.512 13.539-.608 5.371.901 10.648 4.263 14.878l25.295 31.841c3.452 4.8 8.785 7.842 14.694 8.361.59.052 1.189.08 1.778.08 5.352 0 10.479-2.108 14.298-5.933l59.013-58.999c7.875-7.899 7.875-20.749 0-28.648-7.922-7.889-20.749-7.889-28.653 0l-42.956 42.97zm99.587 33.93v-71.213c-53.542-28.379-89.458-28.379-143.014 0v71.213c0 19.797 7.818 35.047 23.899 46.611l47.62 34.218 47.634-34.218c16.033-11.564 23.861-26.814 23.861-46.611zm-154.855-83.002c-2.561 1.401-4.159 4.089-4.159 7.022v75.98c0 24.97 10.28 45.031 30.558 59.598l52.293 37.58c1.391 1 3.028 1.499 4.669 1.499 1.632 0 3.268-.5 4.669-1.499l52.302-37.58c20.278-14.581 30.558-34.628 30.558-59.598v-75.98c0-2.933-1.603-5.621-4.197-7.022-62.301-34.128-104.37-34.128-166.693 0zm180.887 83.002v-86.492c-74.146-43.05-120.917-43.05-195.048 0v86.492c0 27.979 12.011 51.388 34.722 67.718l62.8 45.13 62.771-45.13c22.729-16.33 34.755-39.749 34.755-67.718zm-454.278 49.619c-13.091 0-23.739-10.648-23.739-23.739v-123.52c9.37 9.007 22.079 14.567 36.071 14.567h121.049v26.201c0 9.832 7.993 17.821 17.812 17.821h53.297c9.823 0 17.812-7.989 17.812-17.821v-26.201h20.933v83.072c0 18.358 4.348 35.057 12.766 49.619h-256.001zm149.381-132.691v26.201c0 .99.83 1.82 1.811 1.82h53.297c.962 0 1.811-.849 1.811-1.82v-26.201zm-162.491-157.078h381.9c5.862 0 10.629 4.768 10.629 10.629v94.381c0 .769-.028 1.538-.075 2.297-7.63-1.179-15.133-1.768-22.593-1.768-32.572 0-65.86 10.983-107.689 35.538h-236.731c-19.872 0-36.042-16.147-36.071-36.009v-94.438c.001-5.862 4.768-10.63 10.63-10.63zm243.87-16h-105.84v-21.372h105.84zm-136.629-32.473v32.472h14.788v-29.37c0-4.424 3.579-8.003 8.003-8.003h121.841c4.419 0 7.998 3.579 7.998 8.003v29.37h14.789v-32.472c0-10.86-8.828-19.688-19.688-19.688h-128.043c-10.846 0-19.688 8.828-19.688 19.688zm372.219 190.672c-26.55-15.741-49.61-26.059-71.227-31.629.198-1.839.297-3.702.297-5.56v-94.381c0-14.68-11.95-26.63-26.63-26.63h-91.24v-32.472c0-19.679-16.01-35.689-35.689-35.689h-128.042c-19.679 0-35.689 16.01-35.689 35.689v32.472h-91.24c-14.68 0-26.63 11.95-26.63 26.63v255.401c0 21.909 17.83 39.739 39.74 39.739h267.671c4.928 5.47 10.582 10.521 16.953 15.091l67.459 48.487c1.391 1 3.028 1.504 4.669 1.504 1.632 0 3.268-.505 4.669-1.504l67.44-48.487c27.068-19.462 41.404-47.37 41.404-80.71v-91.07c-.001-2.821-1.51-5.442-3.915-6.881zm-395.921-88.788v34.269h214.821v-34.269zm-7.997 50.265h230.822c4.419 0 7.998-3.579 7.998-7.998v-50.27c0-4.419-3.579-7.998-7.998-7.998h-230.822c-4.419 0-8.003 3.579-8.003 7.998v50.27c0 4.419 3.584 7.998 8.003 7.998z" fill="#224eff"/></g></svg>