<svg enable-background="new 0 0 520 520" height="512" viewBox="0 0 520 520" width="512" xmlns="http://www.w3.org/2000/svg"><g id="_x31_89_x2C__Email_x2C__Newsletter_x2C__Subscription"><g><g><path d="m450 65c8.29 0 15 6.72 15 15s-6.71 15-15 15c-8.279 0-15-6.72-15-15s6.721-15 15-15z" fill="#ffd400"/><path d="m65 60c13.81 0 25 11.19 25 25s-11.19 25-25 25c-13.8 0-25-11.19-25-25s11.2-25 25-25z" fill="#ffd400"/><path d="m45 190h435v295h-435z" fill="#bce4ff"/><path d="m480 485h-435l163.72-139.02.27-.28 51.92 49.3 52.3-48.93z" fill="#72b7dd"/><path d="m480 190v295l-166.79-138.93z" fill="#94d4ff"/><path d="m208.99 345.7-.27.28-163.72 139.02v-295z" fill="#94d4ff"/><path d="m295 65c-52.46 0-95 42.53-95 95 0 52.254 42.333 95 95 95 52.741 0 95-42.794 95-95 0-52.47-42.529-95-95-95z" fill="#3256c1"/><path d="m472.5 110c4.15 0 7.5 3.36 7.5 7.5s-3.35 7.5-7.5 7.5c-4.14 0-7.5-3.36-7.5-7.5s3.36-7.5 7.5-7.5z" fill="#5cbeff"/><path d="m294.58 107.16c-31.395 0-52.92 21.705-52.92 52.76 0 20.894 10.114 40.181 29.58 48.79 6.24 2.75 13.29 4.13 21.15 4.13 5.619 0 10.369-.62 14.24-1.86 3.879-1.23 7.949-2.75 12.219-4.55l3.041 9.95c-32.789 15.564-72.038 3.997-86.21-30.59-6.362-15.479-6.688-37.231.5-53.09 3.54-7.81 8.29-14.36 14.24-19.64 12.335-10.929 28.527-16.18 45.009-16.18 16.454 0 32.328 5.149 44.24 15.93 5.9 5.34 10.61 12.05 14.15 20.14 3.77 8.613 6.025 19.885 5.061 34.55-.364 5.532-1.508 11.477-3.621 17.19-1.129 3.04-2.67 5.79-4.64 8.26-1.96 2.47-4.44 4.47-7.41 5.98-2.979 1.52-6.55 2.28-10.71 2.28-3.598 0-6.68-.535-9.83-2.3-2.801-1.579-4.599-3.775-5.59-6.3-.62-1.57-1.04-3.09-1.26-4.55-7.56 7.561-18.226 11.13-28.65 11.13-8.43 0-14.859-2.22-19.3-6.66-4.44-4.44-6.66-10.2-6.66-17.28 0-4.72.931-8.7 2.78-11.96 1.859-3.26 4.24-5.87 7.17-7.84 2.983-1.979 6.238-3.374 10.02-4.21 8.383-1.89 17.307-1.496 22.761 0 3.09.84 5.42 1.6 6.989 2.27 0-2.7-.279-5.17-.84-7.41-2.102-8.298-9.396-10.79-17.869-10.79-9.74 0-16.945 2.937-21.91 7.25l-4.721-13.99c8.32-5.62 18.09-8.43 29.33-8.43 7.641 0 13.59 1.15 17.86 3.46 4.27 2.3 7.45 5.19 9.53 8.68 2.08 3.48 3.34 7.33 3.789 11.54 1.266 11.827.273 20.651.841 33.03.173 3.802.911 8.19 3.54 10.96 1.119 1.18 2.64 1.77 4.55 1.77 2.809 0 5.11-1.1 6.91-3.29s3.149-4.83 4.05-7.92c.9-3.09 1.51-6.29 1.85-9.61.34-3.31.51-6.03.51-8.17 0-21.82-10.728-40.875-31.689-49.38-6.63-2.7-13.99-4.05-22.08-4.05zm16.18 65.23v-6.74c-1.569-.56-4.02-1.24-7.33-2.03-3.31-.78-6.819-1.18-10.529-1.18-5.061 0-8.96.99-11.721 2.95-2.75 1.97-4.129 5.14-4.129 9.53 0 3.59 1.02 6.35 3.039 8.25 3.879 3.686 10.51 3.121 15.76 2.11 2.641-.5 5.021-1.32 7.16-2.44 2.36-1.12 4.24-2.59 5.65-4.38 1.4-1.8 2.1-3.82 2.1-6.07z" fill="#fff"/><path d="m167.5 45c4.15 0 7.5 3.36 7.5 7.5s-3.35 7.5-7.5 7.5c-4.14 0-7.5-3.36-7.5-7.5s3.36-7.5 7.5-7.5z" fill="#5cbeff"/><path d="m127.5 115c4.15 0 7.5 3.36 7.5 7.5s-3.35 7.5-7.5 7.5c-4.14 0-7.5-3.36-7.5-7.5s3.36-7.5 7.5-7.5z" fill="#5cbeff"/><path d="m475 165h-60c-2.762 0-5-2.239-5-5 0-63.411-51.589-115-115-115s-115 51.589-115 115c0 2.761-2.239 5-5 5h-130c-2.761 0-5-2.239-5-5s2.239-5 5-5h125.099c2.633-66.617 57.65-120 124.901-120s122.268 53.383 124.901 120h55.099c2.762 0 5 2.239 5 5s-2.238 5-5 5z" fill="#d7e816"/><g fill="#fff"><path d="m375 470h-230c-2.761 0-5-2.238-5-5s2.239-5 5-5h230c2.762 0 5 2.238 5 5s-2.238 5-5 5z"/><path d="m335 450h-150c-2.761 0-5-2.238-5-5s2.239-5 5-5h150c2.762 0 5 2.238 5 5s-2.238 5-5 5z"/><path d="m295 430h-70c-2.761 0-5-2.238-5-5s2.239-5 5-5h70c2.762 0 5 2.238 5 5s-2.238 5-5 5z"/></g></g><g><path d="m450 65c8.29 0 15 6.72 15 15s-6.71 15-15 15c-8.279 0-15-6.72-15-15s6.721-15 15-15z" fill="#ffd400"/><path d="m65 60c13.81 0 25 11.19 25 25s-11.19 25-25 25c-13.8 0-25-11.19-25-25s11.2-25 25-25z" fill="#ffd400"/><path d="m45 190h435v295h-435z" fill="#bce4ff"/><path d="m480 485h-435l163.72-139.02.27-.28 51.92 49.3 52.3-48.93z" fill="#72b7dd"/><path d="m480 190v295l-166.79-138.93z" fill="#94d4ff"/><path d="m208.99 345.7-.27.28-163.72 139.02v-295z" fill="#94d4ff"/><path d="m295 65c-52.46 0-95 42.53-95 95 0 52.254 42.333 95 95 95 52.741 0 95-42.794 95-95 0-52.47-42.529-95-95-95z" fill="#3256c1"/><path d="m472.5 110c4.15 0 7.5 3.36 7.5 7.5s-3.35 7.5-7.5 7.5c-4.14 0-7.5-3.36-7.5-7.5s3.36-7.5 7.5-7.5z" fill="#5cbeff"/><path d="m294.58 107.16c-31.395 0-52.92 21.705-52.92 52.76 0 20.894 10.114 40.181 29.58 48.79 6.24 2.75 13.29 4.13 21.15 4.13 5.619 0 10.369-.62 14.24-1.86 3.879-1.23 7.949-2.75 12.219-4.55l3.041 9.95c-32.789 15.564-72.038 3.997-86.21-30.59-6.362-15.479-6.688-37.231.5-53.09 3.54-7.81 8.29-14.36 14.24-19.64 12.335-10.929 28.527-16.18 45.009-16.18 16.454 0 32.328 5.149 44.24 15.93 5.9 5.34 10.61 12.05 14.15 20.14 3.77 8.613 6.025 19.885 5.061 34.55-.364 5.532-1.508 11.477-3.621 17.19-1.129 3.04-2.67 5.79-4.64 8.26-1.96 2.47-4.44 4.47-7.41 5.98-2.979 1.52-6.55 2.28-10.71 2.28-3.598 0-6.68-.535-9.83-2.3-2.801-1.579-4.599-3.775-5.59-6.3-.62-1.57-1.04-3.09-1.26-4.55-7.56 7.561-18.226 11.13-28.65 11.13-8.43 0-14.859-2.22-19.3-6.66-4.44-4.44-6.66-10.2-6.66-17.28 0-4.72.931-8.7 2.78-11.96 1.859-3.26 4.24-5.87 7.17-7.84 2.983-1.979 6.238-3.374 10.02-4.21 8.383-1.89 17.307-1.496 22.761 0 3.09.84 5.42 1.6 6.989 2.27 0-2.7-.279-5.17-.84-7.41-2.102-8.298-9.396-10.79-17.869-10.79-9.74 0-16.945 2.937-21.91 7.25l-4.721-13.99c8.32-5.62 18.09-8.43 29.33-8.43 7.641 0 13.59 1.15 17.86 3.46 4.27 2.3 7.45 5.19 9.53 8.68 2.08 3.48 3.34 7.33 3.789 11.54 1.266 11.827.273 20.651.841 33.03.173 3.802.911 8.19 3.54 10.96 1.119 1.18 2.64 1.77 4.55 1.77 2.809 0 5.11-1.1 6.91-3.29s3.149-4.83 4.05-7.92c.9-3.09 1.51-6.29 1.85-9.61.34-3.31.51-6.03.51-8.17 0-21.82-10.728-40.875-31.689-49.38-6.63-2.7-13.99-4.05-22.08-4.05zm16.18 65.23v-6.74c-1.569-.56-4.02-1.24-7.33-2.03-3.31-.78-6.819-1.18-10.529-1.18-5.061 0-8.96.99-11.721 2.95-2.75 1.97-4.129 5.14-4.129 9.53 0 3.59 1.02 6.35 3.039 8.25 3.879 3.686 10.51 3.121 15.76 2.11 2.641-.5 5.021-1.32 7.16-2.44 2.36-1.12 4.24-2.59 5.65-4.38 1.4-1.8 2.1-3.82 2.1-6.07z" fill="#fff"/><path d="m167.5 45c4.15 0 7.5 3.36 7.5 7.5s-3.35 7.5-7.5 7.5c-4.14 0-7.5-3.36-7.5-7.5s3.36-7.5 7.5-7.5z" fill="#5cbeff"/><path d="m127.5 115c4.15 0 7.5 3.36 7.5 7.5s-3.35 7.5-7.5 7.5c-4.14 0-7.5-3.36-7.5-7.5s3.36-7.5 7.5-7.5z" fill="#5cbeff"/><path d="m475 165h-60c-2.762 0-5-2.239-5-5 0-63.411-51.589-115-115-115s-115 51.589-115 115c0 2.761-2.239 5-5 5h-130c-2.761 0-5-2.239-5-5s2.239-5 5-5h125.099c2.633-66.617 57.65-120 124.901-120s122.268 53.383 124.901 120h55.099c2.762 0 5 2.239 5 5s-2.238 5-5 5z" fill="#d7e816"/><g fill="#fff"><path d="m375 470h-230c-2.761 0-5-2.238-5-5s2.239-5 5-5h230c2.762 0 5 2.238 5 5s-2.238 5-5 5z"/><path d="m335 450h-150c-2.761 0-5-2.238-5-5s2.239-5 5-5h150c2.762 0 5 2.238 5 5s-2.238 5-5 5z"/><path d="m295 430h-70c-2.761 0-5-2.238-5-5s2.239-5 5-5h70c2.762 0 5 2.238 5 5s-2.238 5-5 5z"/></g></g></g></g></svg>