<svg id="Layer_1" enable-background="new 0 0 512 512" viewBox="0 0 512 512" xmlns="http://www.w3.org/2000/svg"><g clip-rule="evenodd" fill-rule="evenodd"><path d="m211.508 247.62c0 24.539 19.979 44.502 44.516 44.502s44.516-19.963 44.516-44.502c0-24.544-19.975-44.501-44.516-44.501s-44.516 19.957-44.516 44.501zm108.368-12.796c.278 1.407 1.488 2.406 2.923 2.406h10.47v20.779h-10.47c-1.431 0-2.646.999-2.923 2.402-1.653 8.364-4.922 16.223-9.662 23.309-.789 1.179-.647 2.773.361 3.777l7.424 7.388-14.743 14.706-7.33-7.394c-1.022-1.008-2.603-1.199-3.829-.379-7.056 4.72-14.932 7.99-23.256 9.655-1.422.285-2.441 1.494-2.441 2.949v10.428h-20.751v-10.428c0-1.453-1.017-2.665-2.438-2.948-8.345-1.662-16.232-4.923-23.307-9.656-1.185-.793-2.776-.622-3.783.381l-7.409 7.382-14.652-14.706 7.413-7.377c1.005-1 1.131-2.619.352-3.791-4.712-7.096-8-14.936-9.652-23.295-.278-1.408-1.546-2.402-2.971-2.402h-10.423v-20.78h10.423c1.426 0 2.692-1 2.971-2.408 1.653-8.353 4.947-16.189 9.65-23.283.781-1.178.656-2.791-.352-3.796l-7.408-7.381 14.65-14.704 7.409 7.382c1.005 1.001 2.605 1.163 3.786.374 7.077-4.727 14.961-7.995 23.306-9.654 1.412-.281 2.436-1.493 2.436-2.938v-10.442h20.751v10.442c0 1.445 1.024 2.658 2.435 2.938 8.344 1.658 16.167 4.949 23.25 9.657 1.228.816 2.816.634 3.841-.376l7.33-7.394 14.741 14.704-7.42 7.393c-1.011 1.008-1.155 2.595-.364 3.779 4.736 7.082 8.01 14.942 9.662 23.301zm-3.442 194.667v12.521c0 10.068-8.182 18.256-18.251 18.256h-84.931c-10.07 0-18.251-8.187-18.251-18.256v-12.521zm-21.269 36.779v5.382c0 15.636-12.706 28.348-28.343 28.348h-22.211c-15.631 0-28.39-12.706-28.39-28.348v-5.382z" fill="#92c3fe"/><path d="m234.237 254.203c-3.16-3.084-3.206-8.154-.141-11.313 3.112-3.159 8.158-3.23 11.318-.146l5.895 5.767 15.232-15.34c3.112-3.141 8.158-3.169 11.318-.061 3.112 3.112 3.16 8.182.047 11.322l-20.796 20.971c-1.556 1.58-3.631 2.367-5.659 2.367s-4.055-.75-5.612-2.268zm21.786-40.083c-18.486 0-33.482 15.029-33.482 33.5 0 18.472 14.996 33.501 33.482 33.501s33.482-15.029 33.482-33.501c0-18.471-14.996-33.5-33.482-33.5zm-49.515 33.5c0 27.29 22.211 49.501 49.515 49.501s49.515-22.211 49.515-49.501c0-27.299-22.211-49.501-49.515-49.501s-49.515 22.202-49.515 49.501zm44.14-66.798c0 3.81-2.688 7.102-6.46 7.842-7.687 1.537-14.949 4.536-21.504 8.908-3.16 2.117-7.404 1.698-10.092-.99l-3.867-3.853-7.592 7.621 3.867 3.853c2.688 2.697 3.065 6.918.991 10.101-4.386 6.56-7.404 13.789-8.913 21.49-.755 3.74-4.056 6.437-7.876 6.437h-5.423v10.78h5.423c3.82 0 7.121 2.693 7.876 6.432 1.509 7.71 4.527 14.939 8.913 21.499 2.075 3.169 1.698 7.399-.991 10.101l-3.867 3.848 7.592 7.621 3.867-3.853c2.688-2.698 6.932-3.117 10.092-.995 6.555 4.376 13.817 7.376 21.504 8.908 3.772.75 6.46 4.027 6.46 7.852v5.428h10.752v-5.428c0-3.824 2.688-7.102 6.461-7.852 7.687-1.542 14.949-4.532 21.457-8.908 3.207-2.122 7.404-1.702 10.139.995l3.82 3.853 7.64-7.621-3.867-3.848c-2.688-2.702-3.113-6.932-.99-10.101 4.386-6.56 7.404-13.789 8.913-21.499.754-3.739 4.008-6.432 7.828-6.432h5.47v-10.78h-5.47c-3.82 0-7.074-2.688-7.828-6.437-1.509-7.71-4.527-14.944-8.913-21.49-2.122-3.183-1.698-7.404.99-10.101l3.867-3.853-7.64-7.621-3.82 3.853c-2.735 2.697-6.932 3.108-10.139.999-6.555-4.381-13.77-7.38-21.457-8.917-3.773-.74-6.461-4.032-6.461-7.842v-5.442h-10.752zm-16.034-13.44v7.168c-5.234 1.542-10.327 3.641-15.138 6.281l-5.046-5.07c-3.16-3.122-8.206-3.131-11.318 0l-18.957 18.929c-3.112 3.131-3.112 8.191 0 11.318l5.093 5.074c-2.641 4.82-4.763 9.879-6.319 15.147h-7.121c-4.433 0-8.017 3.579-8.017 8.003v26.781c0 4.419 3.584 7.998 8.017 7.998h7.121c1.556 5.267 3.679 10.328 6.319 15.152l-5.093 5.069c-3.112 3.117-3.112 8.187 0 11.309l18.957 18.943c3.112 3.117 8.158 3.117 11.318 0l5.046-5.074c4.81 2.641 9.903 4.744 15.138 6.281v7.159c0 4.423 3.584 8.003 8.017 8.003h26.786c4.433 0 7.97-3.579 7.97-8.003v-7.159c5.282-1.537 10.375-3.641 15.185-6.281l5.046 5.074c1.509 1.5 3.537 2.339 5.659 2.339s4.15-.84 5.659-2.339l18.957-18.943c3.112-3.122 3.112-8.191 0-11.309l-5.093-5.069c2.641-4.824 4.763-9.894 6.272-15.152h7.168c4.433 0 8.017-3.579 8.017-7.998v-26.781c0-4.423-3.584-8.003-8.017-8.003h-7.168c-1.509-5.268-3.631-10.327-6.272-15.147l5.093-5.074c3.112-3.127 3.112-8.186 0-11.318l-18.957-18.929c-1.509-1.499-3.537-2.339-5.659-2.339s-4.15.839-5.659 2.339l-5.046 5.07c-4.81-2.641-9.903-4.739-15.185-6.281v-7.168c0-4.414-3.537-7.998-7.97-7.998h-26.786c-4.433 0-8.017 3.584-8.017 7.998zm120.11 98.12v-87.533c-75.027-43.588-122.374-43.588-197.401 0v87.533c0 28.318 12.12 52.029 35.132 68.558l63.568 45.681 63.568-45.681c22.967-16.529 35.133-40.24 35.133-68.558zm12.073-98.993c-43.196-25.625-77.338-37.056-110.773-37.056-33.435 0-67.576 11.431-110.82 37.056-2.405 1.443-3.914 4.06-3.914 6.88v92.112c0 33.69 14.477 61.89 41.829 81.55l68.237 49.039c1.415 1 3.018 1.499 4.669 1.499s3.254-.5 4.669-1.499l68.237-49.039c27.351-19.66 41.781-47.86 41.781-81.55v-92.111c-.001-2.82-1.463-5.437-3.915-6.881zm-20.939-95.399 20.042-34.717c2.216-3.829 7.121-5.14 10.941-2.933 3.82 2.212 5.14 7.102 2.924 10.931l-20.042 34.722c-1.462 2.57-4.197 3.999-6.932 3.999-1.368 0-2.735-.349-4.008-1.07-3.821-2.213-5.141-7.103-2.925-10.932zm-251.349 265.223c2.216 3.829.896 8.719-2.924 10.931l-34.755 20.047c-1.226.731-2.641 1.07-3.961 1.07-2.782 0-5.47-1.429-6.932-3.999-2.216-3.82-.896-8.72 2.924-10.931l34.708-20.042c3.819-2.207 8.724-.901 10.94 2.924zm-32.963-85.082h-40.084c-4.433 0-8.017-3.579-8.017-8.002 0-4.409 3.584-7.998 8.017-7.998h40.084c4.433 0 8.017 3.589 8.017 7.998 0 4.423-3.584 8.002-8.017 8.002zm-15.609-129.121c2.169-3.829 7.073-5.14 10.893-2.929l34.755 20.051c3.82 2.207 5.14 7.097 2.924 10.926-1.509 2.561-4.197 4.004-6.932 4.004-1.368 0-2.735-.349-4.009-1.08l-34.708-20.042c-3.819-2.206-5.139-7.101-2.923-10.93zm85.732-77.74c-2.216-3.829-.896-8.719 2.924-10.931 3.82-2.207 8.724-.896 10.941 2.933l20.042 34.717c2.169 3.829.896 8.72-2.924 10.931-1.273.721-2.641 1.07-4.008 1.07-2.782 0-5.47-1.429-6.932-3.999zm116.055 4.712v-40.103c0-4.409 3.584-7.998 7.97-7.998 4.433 0 8.017 3.589 8.017 7.998v40.103c0 4.419-3.584 7.998-8.017 7.998-4.386-.001-7.97-3.58-7.97-7.998zm217.773 315.28c-1.462 2.57-4.15 3.999-6.932 3.999-1.367 0-2.735-.34-4.008-1.07l-34.708-20.047c-3.82-2.212-5.14-7.102-2.924-10.931 2.216-3.825 7.121-5.131 10.94-2.924l34.708 20.042c3.82 2.211 5.141 7.111 2.924 10.931zm33.058-120.959c0 4.419-3.537 7.998-7.97 7.998h-40.131c-4.385 0-7.97-3.579-7.97-7.998 0-4.423 3.584-8.002 7.97-8.002h40.131c4.433 0 7.97 3.579 7.97 8.002zm-81.63-93.244c-2.216-3.829-.896-8.719 2.924-10.926l34.708-20.051c3.867-2.212 8.724-.901 10.941 2.929 2.216 3.829.896 8.724-2.924 10.931l-34.708 20.042c-1.273.731-2.641 1.08-4.008 1.08-2.783-.002-5.471-1.444-6.933-4.005zm-86.298 220.333c44.234-26.342 71.679-74.631 71.679-126.033 0-80.837-65.738-146.598-146.613-146.598-80.828 0-146.566 65.761-146.566 146.598 0 51.402 27.446 99.691 71.632 126.033 12.214 7.276 19.24 19.599 19.24 33.807v14.171h111.433v-14.17c.002-14.209 7.028-26.531 19.195-33.808zm-32.445 84.757h-84.931c-7.309 0-13.251-5.947-13.251-13.256v-7.521h111.433v7.521c.001 7.309-5.941 13.256-13.251 13.256zm-31.359 39.73h-22.211c-12.874 0-23.39-10.469-23.39-23.348v-.382h68.944v.382c0 12.879-10.469 23.348-23.343 23.348zm-11.129-413.119c-89.647 0-162.599 72.939-162.599 162.599 0 28.681 7.592 56.881 21.928 81.554 13.864 23.927 33.812 44.059 57.579 58.225 7.357 4.381 11.365 11.502 11.365 20.061v37.693c0 13.36 9.007 24.649 21.268 28.139v1.5c0 21.697 17.684 39.348 39.377 39.348h22.211c21.692 0 39.377-17.651 39.377-39.348v-1.5c12.214-3.49 21.221-14.779 21.221-28.139v-37.692c0-8.559 4.055-15.68 11.412-20.061 23.767-14.166 43.668-34.298 57.579-58.225 14.336-24.673 21.881-52.873 21.881-81.554 0-89.661-72.906-162.6-162.599-162.6z" fill="#224eff"/></g></svg>