<svg enable-background="new 0 0 520 520" height="512" viewBox="0 0 520 520" width="512" xmlns="http://www.w3.org/2000/svg"><g id="_x31_84_x2C__Call_x2C__Exchange_x2C__Phone_x2C__Redial"><g><g><path d="m260.5 481.5c-61.433 0-119.19-23.925-162.633-67.367s-67.367-101.199-67.367-162.633c0-29.052 5.352-57.381 15.907-84.201.01-.026.02-.051.03-.076.949-2.455 3.662-3.773 6.197-2.951 2.628.848 4.071 3.665 3.224 6.293-.04.122-.098.277-.151.409-10.09 25.644-15.207 52.738-15.207 80.526 0 121.309 98.691 220 220 220 25.182 0 49.907-4.236 73.49-12.593.049-.018.098-.034.146-.05.502-.162 1.029-.247 1.554-.247 2.761 0 5 2.238 5 5 0 2.229-1.458 4.117-3.474 4.763-24.623 8.711-50.434 13.127-76.716 13.127z" fill="#d7deed"/><path d="m396.131 341.74c-27.328-27.326-71.65-27.341-98.99 0l-3.541 3.54-123.74-123.75 3.53-3.53c27.34-27.34 27.34-71.66 0-99-27.313-27.293-71.596-27.373-98.99 0-1.49 2.061-25.248 20.542-29.34 57.13-2.93 26.25 5.67 53.55 25.8 73.69l194.46 194.45c35.172 35.152 92.119 35.142 127.279 0l3.531-3.529c27.341-27.341 27.341-71.661.001-99.001z" fill="#4a78ff"/><path d="m396.131 341.74c27.34 27.34 27.34 71.66 0 99l-3.531 3.529-99-98.989 3.541-3.54c13.67-13.67 31.58-20.5 49.5-20.5 17.91 0 35.819 6.83 49.49 20.5z" fill="#2663f0"/><path d="m173.39 119c27.34 27.34 27.34 71.66 0 99l-3.53 3.53-99-98.99 3.54-3.54c13.67-13.66 31.58-20.5 49.5-20.5 17.91 0 35.82 6.84 49.49 20.5z" fill="#2663f0"/><path d="m462 308.5c15.19 0 27.5 12.31 27.5 27.5s-12.31 27.5-27.5 27.5c-15.18 0-27.5-12.31-27.5-27.5s12.32-27.5 27.5-27.5z" fill="#ffd400"/><path d="m189.5 38.5c11.05 0 20 8.95 20 20s-8.95 20-20 20c-11.04 0-20-8.95-20-20s8.96-20 20-20z" fill="#ffd400"/><path d="m467 233.5c4.15 0 7.5 3.36 7.5 7.5s-3.35 7.5-7.5 7.5c-4.14 0-7.5-3.36-7.5-7.5s3.36-7.5 7.5-7.5z" fill="#ff5722"/><path d="m457.42 433.51c4.141.23 7.301 3.771 7.07 7.91-.23 4.13-3.769 7.3-7.9 7.07-4.14-.23-7.31-3.771-7.07-7.91.22-4.13 3.76-7.3 7.9-7.07z" fill="#ff5722"/><path d="m437 38.5c4.15 0 7.5 3.36 7.5 7.5s-3.35 7.5-7.5 7.5c-4.14 0-7.5-3.36-7.5-7.5s3.36-7.5 7.5-7.5z" fill="#ff5722"/><circle cx="339.5" cy="168.5" fill="#bce4ff" r="110"/><path d="m404.5 206.64c-5.851 5.851-23.76 23.76-30.6 30.6-3.381 3.38-8.86 3.38-12.24 0s-3.38-8.86 0-12.24l9.71-9.71h-78.21c-4.788 0-8.66-3.879-8.66-8.65 0-4.78 3.881-8.66 8.66-8.66h78.21l-9.71-9.7c-3.387-3.387-3.387-8.853 0-12.24 3.38-3.39 8.859-3.39 12.24 0z" fill="#d94556"/><g fill="#ff5722"><path d="m389.5 141.64c0 4.78-3.869 8.65-8.65 8.65h-78.209l9.709 9.71c3.357 3.356 3.393 8.847 0 12.24-3.379 3.38-8.859 3.38-12.239 0-2.706-2.705 10.59 10.587-30.61-30.6 41.2-41.187 27.904-27.895 30.61-30.6 3.349-3.369 8.855-3.405 12.239 0 3.381 3.38 3.381 8.86 0 12.24l-9.709 9.7h78.209c4.77 0 8.65 3.87 8.65 8.66z"/><path d="m247 38.5c4.15 0 7.5 3.36 7.5 7.5s-3.35 7.5-7.5 7.5c-4.14 0-7.5-3.36-7.5-7.5s3.36-7.5 7.5-7.5z"/><path d="m217.42 230.592c4.13.23 7.3 3.77 7.07 7.91-.23 4.13-3.77 7.3-7.9 7.07-4.14-.23-7.3-3.77-7.08-7.91.23-4.13 3.77-7.3 7.91-7.07z"/><path d="m102.42 458.51c4.14.23 7.3 3.771 7.07 7.91-.23 4.13-3.77 7.3-7.9 7.07-4.14-.23-7.3-3.771-7.07-7.91.22-4.13 3.76-7.3 7.9-7.07z"/><path d="m82 65.582c4.15 0 7.5 3.36 7.5 7.5s-3.35 7.5-7.5 7.5c-4.14 0-7.5-3.36-7.5-7.5s3.36-7.5 7.5-7.5z"/><path d="m47 398.5c4.15 0 7.5 3.36 7.5 7.5s-3.35 7.5-7.5 7.5c-4.14 0-7.5-3.36-7.5-7.5s3.36-7.5 7.5-7.5z"/></g><path d="m296.35 400.63c-1.279 0-2.559-.488-3.535-1.465l-205-205c-1.953-1.953-1.953-5.119 0-7.071s5.118-1.952 7.071 0l205 205.001c1.952 1.952 1.952 5.118 0 7.07-.977.977-2.256 1.465-3.536 1.465z" fill="#2663f0"/><path d="m444.5 283.5h-180c-2.762 0-5-2.238-5-5s2.238-5 5-5h180c2.762 0 5 2.238 5 5s-2.238 5-5 5z" fill="#94d4ff"/></g><g><path d="m260.5 481.5c-61.433 0-119.19-23.925-162.633-67.367s-67.367-101.199-67.367-162.633c0-29.052 5.352-57.381 15.907-84.201.01-.026.02-.051.03-.076.949-2.455 3.662-3.773 6.197-2.951 2.628.848 4.071 3.665 3.224 6.293-.04.122-.098.277-.151.409-10.09 25.644-15.207 52.738-15.207 80.526 0 121.309 98.691 220 220 220 25.182 0 49.907-4.236 73.49-12.593.049-.018.098-.034.146-.05.502-.162 1.029-.247 1.554-.247 2.761 0 5 2.238 5 5 0 2.229-1.458 4.117-3.474 4.763-24.623 8.711-50.434 13.127-76.716 13.127z" fill="#d7deed"/><path d="m396.131 341.74c-27.328-27.326-71.65-27.341-98.99 0l-3.541 3.54-123.74-123.75 3.53-3.53c27.34-27.34 27.34-71.66 0-99-27.313-27.293-71.596-27.373-98.99 0-1.49 2.061-25.248 20.542-29.34 57.13-2.93 26.25 5.67 53.55 25.8 73.69l194.46 194.45c35.172 35.152 92.119 35.142 127.279 0l3.531-3.529c27.341-27.341 27.341-71.661.001-99.001z" fill="#4a78ff"/><path d="m396.131 341.74c27.34 27.34 27.34 71.66 0 99l-3.531 3.529-99-98.989 3.541-3.54c13.67-13.67 31.58-20.5 49.5-20.5 17.91 0 35.819 6.83 49.49 20.5z" fill="#2663f0"/><path d="m173.39 119c27.34 27.34 27.34 71.66 0 99l-3.53 3.53-99-98.99 3.54-3.54c13.67-13.66 31.58-20.5 49.5-20.5 17.91 0 35.82 6.84 49.49 20.5z" fill="#2663f0"/><path d="m462 308.5c15.19 0 27.5 12.31 27.5 27.5s-12.31 27.5-27.5 27.5c-15.18 0-27.5-12.31-27.5-27.5s12.32-27.5 27.5-27.5z" fill="#ffd400"/><path d="m189.5 38.5c11.05 0 20 8.95 20 20s-8.95 20-20 20c-11.04 0-20-8.95-20-20s8.96-20 20-20z" fill="#ffd400"/><path d="m467 233.5c4.15 0 7.5 3.36 7.5 7.5s-3.35 7.5-7.5 7.5c-4.14 0-7.5-3.36-7.5-7.5s3.36-7.5 7.5-7.5z" fill="#ff5722"/><path d="m457.42 433.51c4.141.23 7.301 3.771 7.07 7.91-.23 4.13-3.769 7.3-7.9 7.07-4.14-.23-7.31-3.771-7.07-7.91.22-4.13 3.76-7.3 7.9-7.07z" fill="#ff5722"/><path d="m437 38.5c4.15 0 7.5 3.36 7.5 7.5s-3.35 7.5-7.5 7.5c-4.14 0-7.5-3.36-7.5-7.5s3.36-7.5 7.5-7.5z" fill="#ff5722"/><circle cx="339.5" cy="168.5" fill="#bce4ff" r="110"/><path d="m404.5 206.64c-5.851 5.851-23.76 23.76-30.6 30.6-3.381 3.38-8.86 3.38-12.24 0s-3.38-8.86 0-12.24l9.71-9.71h-78.21c-4.788 0-8.66-3.879-8.66-8.65 0-4.78 3.881-8.66 8.66-8.66h78.21l-9.71-9.7c-3.387-3.387-3.387-8.853 0-12.24 3.38-3.39 8.859-3.39 12.24 0z" fill="#d94556"/><g fill="#ff5722"><path d="m389.5 141.64c0 4.78-3.869 8.65-8.65 8.65h-78.209l9.709 9.71c3.357 3.356 3.393 8.847 0 12.24-3.379 3.38-8.859 3.38-12.239 0-2.706-2.705 10.59 10.587-30.61-30.6 41.2-41.187 27.904-27.895 30.61-30.6 3.349-3.369 8.855-3.405 12.239 0 3.381 3.38 3.381 8.86 0 12.24l-9.709 9.7h78.209c4.77 0 8.65 3.87 8.65 8.66z"/><path d="m247 38.5c4.15 0 7.5 3.36 7.5 7.5s-3.35 7.5-7.5 7.5c-4.14 0-7.5-3.36-7.5-7.5s3.36-7.5 7.5-7.5z"/><path d="m217.42 230.592c4.13.23 7.3 3.77 7.07 7.91-.23 4.13-3.77 7.3-7.9 7.07-4.14-.23-7.3-3.77-7.08-7.91.23-4.13 3.77-7.3 7.91-7.07z"/><path d="m102.42 458.51c4.14.23 7.3 3.771 7.07 7.91-.23 4.13-3.77 7.3-7.9 7.07-4.14-.23-7.3-3.771-7.07-7.91.22-4.13 3.76-7.3 7.9-7.07z"/><path d="m82 65.582c4.15 0 7.5 3.36 7.5 7.5s-3.35 7.5-7.5 7.5c-4.14 0-7.5-3.36-7.5-7.5s3.36-7.5 7.5-7.5z"/><path d="m47 398.5c4.15 0 7.5 3.36 7.5 7.5s-3.35 7.5-7.5 7.5c-4.14 0-7.5-3.36-7.5-7.5s3.36-7.5 7.5-7.5z"/></g><path d="m296.35 400.63c-1.279 0-2.559-.488-3.535-1.465l-205-205c-1.953-1.953-1.953-5.119 0-7.071s5.118-1.952 7.071 0l205 205.001c1.952 1.952 1.952 5.118 0 7.07-.977.977-2.256 1.465-3.536 1.465z" fill="#2663f0"/><path d="m444.5 283.5h-180c-2.762 0-5-2.238-5-5s2.238-5 5-5h180c2.762 0 5 2.238 5 5s-2.238 5-5 5z" fill="#94d4ff"/></g></g></g></svg>