<svg id="Layer_1" enable-background="new 0 0 512 512" viewBox="0 0 512 512" xmlns="http://www.w3.org/2000/svg"><g clip-rule="evenodd" fill-rule="evenodd"><path d="m191.293 468.335-120.06 32.18-6.915-25.83 120.058-32.164zm136.331-25.815 120.06 32.165-6.923 25.829-120.054-32.18zm-64.455-227.288v18.528c0 3.938-3.23 7.174-7.169 7.174-3.938 0-7.174-3.236-7.174-7.174v-18.528c0-1.038-.535-2.002-1.418-2.549-4.842-2.997-7.759-8.213-7.759-13.909 0-9.017 7.333-16.346 16.35-16.346 9.015 0 16.35 7.331 16.35 16.346 0 5.694-2.918 10.913-7.758 13.909-.883.548-1.422 1.509-1.422 2.549zm-43.63-99.691v25.49h-14.668v-25.49c0-28.198 22.93-51.134 51.129-51.134s51.129 22.936 51.129 51.134v25.49h-14.673v-25.49c0-20.098-16.359-36.452-36.456-36.452-20.099.001-36.461 16.352-36.461 36.452z" fill="#92c3fe"/><path d="m256 187.428c6.258 0 11.351 5.093 11.351 11.346 0 3.961-2.023 7.569-5.39 9.658-2.362 1.457-3.791 4.032-3.791 6.8v18.528c0 1.179-.99 2.174-2.169 2.174s-2.174-.995-2.174-2.174v-18.528c0-2.768-1.429-5.343-3.787-6.8-3.372-2.089-5.39-5.697-5.39-9.658-.001-6.253 5.087-11.346 11.35-11.346zm-18.174 31.794v14.539c0 10.021 8.153 18.17 18.174 18.17s18.17-8.149 18.17-18.17v-14.539c5.81-5.145 9.182-12.501 9.182-20.447 0-15.076-12.27-27.347-27.352-27.347-15.081 0-27.351 12.27-27.351 27.347 0 7.946 3.367 15.302 9.177 20.447zm18.174-149.815c25.441 0 46.13 20.698 46.13 46.134v20.49h-4.673v-20.49c0-22.857-18.599-41.451-41.456-41.451-22.862 0-41.46 18.594-41.46 41.451v20.49h-4.669v-20.49c-.001-25.436 20.687-46.134 46.128-46.134zm25.456 66.624v-20.49c0-14.034-11.417-25.451-25.456-25.451-14.043 0-25.46 11.417-25.46 25.451v20.49zm45.832 24.81c0-4.857-3.947-8.809-8.809-8.809h-124.962c-4.857 0-8.809 3.952-8.809 8.809v101.681c0 4.857 3.952 8.809 8.809 8.809h124.962c4.862 0 8.809-3.952 8.809-8.809zm-133.418-45.3v20.49h-.354c-13.676 0-24.81 11.129-24.81 24.81v101.681c0 13.68 11.134 24.81 24.81 24.81h124.962c13.681 0 24.81-11.129 24.81-24.81v-101.681c0-13.68-11.129-24.81-24.81-24.81h-.349v-20.49c0-34.26-27.87-62.135-62.13-62.135-34.259.001-62.129 27.875-62.129 62.135zm190.04 83.55v-111.203c-97.432-57.48-158.402-57.48-255.82 0v111.202c0 37.042 15.897 68.048 45.979 89.665l81.931 58.886 81.927-58.885c30.081-21.617 45.983-52.623 45.983-89.665zm15.996-115.754c0-2.811-1.476-5.418-3.886-6.861-54.703-32.803-97.89-47.426-140.02-47.431-42.13 0-85.322 14.633-140.02 47.431-2.414 1.443-3.89 4.051-3.89 6.861v115.753c0 42.409 18.198 77.909 52.637 102.662l86.6 62.238c1.401 1 3.032 1.5 4.673 1.5 1.637 0 3.268-.5 4.669-1.5l86.6-62.238c34.439-24.758 52.637-60.253 52.637-102.662zm-143.906 298.786 98.267-70.633c37.17-26.71 57.641-66.629 57.641-112.4v-126.971c-118.908-73.953-192.908-73.953-311.82 0v126.972c0 45.766 20.471 85.69 57.631 112.4zm171.908-183.032v-131.4c0-2.749-1.41-5.305-3.74-6.772-65.789-41.447-117.658-59.923-168.168-59.923s-102.383 18.476-168.173 59.923c-2.329 1.467-3.74 4.023-3.74 6.772v131.4c0 51.057 22.843 95.593 64.299 125.392l102.94 73.99c1.401 1 3.032 1.5 4.673 1.5 1.637 0 3.268-.5 4.669-1.5l102.94-73.99c41.462-29.8 64.3-74.331 64.3-125.392zm63.262 153.441c0 9.413-3.49 17.722-10.648 25.427l-35.935 38.641c-11.2 12.053-16.236 25.211-15.769 41.654l-78.437-21.023-4.405-33.671c-1.268-9.677.953-18.17 6.772-25.937l65.671-65.153c7.3-7.253 19.137-7.201 26.38.099 7.248 7.3 7.201 19.141-.104 26.38l-35.288 35.019c-3.141 3.112-3.16 8.173-.038 11.313 3.108 3.141 8.167 3.16 11.308.038l35.288-35.01c12.544-12.44 13.553-32.157 3.004-45.79v-100.501c0-4.272 1.688-8.309 4.74-11.36 3.051-3.056 7.088-4.735 11.36-4.735 8.88 0 16.1 7.22 16.1 16.095v148.514zm-53.944 141.859 4.334-16.17-110.4-29.577-4.329 16.156zm-108.669-46.441h.014zm146.513-276.027c17.698 0 32.1 14.402 32.1 32.095v148.513c0 13.449-5.032 25.673-14.93 36.321l-35.929 38.65c-9.342 10.049-12.699 20.447-11.172 35.118l3.16.849c7.088 1.901 11.308 9.21 9.408 16.293l-5.716 21.372c-.924 3.428-3.131 6.286-6.211 8.069-2.051 1.188-4.334 1.801-6.64 1.801-1.151 0-2.311-.16-3.452-.462l-115.601-30.982c-7.088-1.896-11.308-9.21-9.408-16.288l5.72-21.372c.92-3.428 3.122-6.296 6.201-8.069 3.089-1.778 6.668-2.259 10.096-1.339l.962.259-3.551-27.111c-1.839-14.081 1.622-26.918 10.271-38.179.217-.288.448-.561.707-.811l66.063-65.54c9.7-9.63 23.711-12.317 35.821-8.111v-88.982c0-8.55 3.348-16.599 9.427-22.673 6.075-6.078 14.125-9.421 22.674-9.421zm-400.301 322.468-4.329-16.17 110.4-29.577 4.329 16.156zm-7.361-77.791-35.929-38.641c-7.159-7.706-10.653-16.015-10.653-25.427v-148.514c0-8.875 7.225-16.095 16.104-16.095 4.268 0 8.309 1.679 11.36 4.735 3.046 3.051 4.739 7.088 4.739 11.36v100.502c-10.554 13.633-9.54 33.35 2.999 45.79l35.292 35.01c3.136 3.122 8.196 3.103 11.309-.038 3.117-3.141 3.098-8.201-.043-11.313l-35.287-35.019c-7.3-7.239-7.352-19.08-.099-26.38 7.239-7.3 19.08-7.352 26.38-.099l65.667 65.153c5.824 7.767 8.04 16.26 6.772 25.937l-4.4 33.671-78.442 21.023c.472-16.445-4.569-29.602-15.769-41.655zm116.031 31.35h-.009zm12.157-6.05 5.725 21.372c1.896 7.078-2.32 14.392-9.412 16.288l-115.602 30.982c-1.136.302-2.297.462-3.447.462-2.311 0-4.588-.613-6.64-1.801-3.079-1.783-5.291-4.64-6.21-8.069l-5.72-21.372c-1.9-7.083 2.32-14.392 9.408-16.293l3.159-.849c1.533-14.671-1.825-25.069-11.167-35.118l-35.929-38.65c-9.903-10.648-14.93-22.871-14.93-36.321v-148.513c0-17.693 14.397-32.095 32.1-32.095 8.55 0 16.6 3.344 22.669 9.422 6.079 6.074 9.431 14.124 9.431 22.673v88.982c12.11-4.206 26.121-1.518 35.821 8.111l66.058 65.54c.259.25.49.524.712.811 8.649 11.261 12.11 24.097 10.266 38.179l-3.546 27.111.957-.259c3.433-.92 7.008-.439 10.092 1.339 3.088 1.772 5.286 4.639 6.205 8.068z" fill="#224eff"/></g></svg>